<mxfile host="app.diagrams.net" modified="2023-05-11T16:36:50.076Z" agent="Mozilla/5.0 (Windows NT 10.0; Win64; x64) AppleWebKit/537.36 (KHTML, like Gecko) Chrome/113.0.0.0 Safari/537.36 Edg/113.0.1774.35" version="21.2.9" etag="6nJ4f0oJN9n3pAZJ1Nob" type="github">
  <diagram name="PÃ¡gina-1" id="S5eCwyTbyX82C3nuGWmS">
    <mxGraphModel>
      <root>
        <mxCell id="0" />
        <mxCell id="1" parent="0" />
      </root>
    </mxGraphModel>
  </diagram>
</mxfile>
